<svg width="1920" height="1080" viewBox="0 0 1920 1080" xmlns="http://www.w3.org/2000/svg"><rect width="1920" height="1080" fill="#94e3fe"/><path d="M 0,1080 C 0,1080 0,135 0,135 C 43.72610069640079,145.01177858211 87.45220139280158,155.02355716422 139,161 C 190.54779860719842,166.97644283578 249.91729512519447,168.91754992522996 289,167 C 328.08270487480553,165.08245007477004 346.8786181064206,159.30624313486015 394,139 C 441.1213818935794,118.69375686513986 516.5682324491232,83.8574775353295 567,92 C 617.4317675508768,100.1425224646705 642.8484520970866,151.2638467238219 680,172 C 717.1515479029134,192.7361532761781 766.03795916253,183.087135569383 812,175 C 857.96204083747,166.912864430617 900.9997112527935,160.38761099864607 946,145 C 991.0002887472065,129.61238900135393 1037.9631958262962,105.36242043603268 1091,95 C 1144.0368041737038,84.63757956396732 1203.1475054420218,88.16270725722327 1249,107 C 1294.8524945579782,125.83729274277673 1327.4467824056164,159.98675053507415 1373,176 C 1418.5532175943836,192.01324946492585 1477.0653649355115,189.89029060248012 1525,185 C 1572.9346350644885,180.10970939751988 1610.291757852337,172.4520870550053 1646,173 C 1681.708242147663,173.5479129449947 1715.7676036551402,182.3013611774986 1765,169 C 1814.2323963448598,155.6986388225014 1878.6378275271027,120.3424682350004 1907,111 C 1935.3621724728973,101.6575317649996 1927.6810862364487,118.3287658824998 1920,135 C 1920,135 1920,1080 1920,1080 Z" fill="#004d65" opacity="0.075"/><path d="M 0,1080 C 0,1080 0,270 0,270 C 43.558643947894424,269.44053683813456 87.11728789578885,268.8810736762691 132,255 C 176.88271210421115,241.11892632373088 223.08949236473904,213.91624213305803 271,227 C 318.91050763526096,240.08375786694197 368.524742645255,293.4539577914988 421,295 C 473.475257354745,296.5460422085012 528.8115370542408,246.267926700947 571,221 C 613.1884629457592,195.732073299053 642.2291091377815,195.47433540471326 677,225 C 711.7708908622185,254.52566459528674 752.2720263946329,313.83473168020015 801,314 C 849.7279736053671,314.16526831979985 906.6827852836869,255.1867378744863 961,245 C 1015.3172147163131,234.8132621255137 1066.9968324706194,273.41831682185466 1106,278 C 1145.0031675293806,282.58168317814534 1171.3298848338345,253.13999483809488 1213,248 C 1254.6701151661655,242.86000516190512 1311.6836281940427,262.0217038257658 1363,259 C 1414.3163718059573,255.97829617423417 1459.9356023899943,230.77318985884173 1513,231 C 1566.0643976100057,231.22681014115827 1626.573962245981,256.8855367388672 1669,263 C 1711.426037754019,269.1144632611328 1735.7685486260818,255.68466318568966 1782,263 C 1828.2314513739182,270.31533681431034 1896.3518432496908,298.37581051837435 1923,303 C 1949.6481567503092,307.62418948162565 1934.8240783751546,288.8120947408128 1920,270 C 1920,270 1920,1080 1920,1080 Z" fill="#004d65" opacity="0.15"/><path d="M 0,1080 C 0,1080 0,405 0,405 C 35.41606553748281,422.16374810907 70.83213107496562,439.32749621814 120,442 C 169.16786892503438,444.67250378186 232.08754123762043,432.8537632365099 280,436 C 327.9124587623796,439.1462367634901 360.81770397455284,457.2574508358202 404,448 C 447.18229602544716,438.7425491641798 500.64164286416815,402.1164334202095 542,401 C 583.3583571358319,399.8835665797905 612.6157245687745,434.27681548334215 661,444 C 709.3842754312255,453.72318451665785 776.8954588607342,438.7763046464221 822,432 C 867.1045411392658,425.2236953535779 889.8024399882886,426.61796593096966 938,434 C 986.1975600117114,441.38203406903034 1059.894781186111,454.7518316296992 1111,449 C 1162.105218813889,443.2481683703008 1190.6184352672678,418.3747075502333 1236,413 C 1281.3815647327322,407.6252924497667 1343.6314777448179,421.7493381693675 1393,430 C 1442.3685222551821,438.2506618306325 1478.8556537534603,440.6279397722966 1516,425 C 1553.1443462465397,409.3720602277034 1590.9459072413406,375.7389027414462 1634,372 C 1677.0540927586594,368.2610972585538 1725.3607172811776,394.4164492619184 1783,400 C 1840.6392827188224,405.5835507380816 1907.611223633949,390.59530021088045 1932,388 C 1956.388776366051,385.40469978911955 1938.1943881830255,395.2023498945598 1920,405 C 1920,405 1920,1080 1920,1080 Z" fill="#004d65" opacity="0.22499999999999998"/><path d="M 0,1080 C 0,1080 0,540 0,540 C 45.77592683695477,518.7889570281666 91.55185367390953,497.5779140563332 135,490 C 178.44814632609047,482.4220859436668 219.5685121413166,488.4773008028337 272,503 C 324.4314878586834,517.5226991971663 388.174097760824,540.512882732332 432,550 C 475.825902239176,559.487117267668 499.73509681538746,555.4711682678385 534,557 C 568.2649031846125,558.5288317321615 612.885514977626,565.602444196314 667,547 C 721.114485022374,528.397555803686 784.7228432741082,484.1190549469056 829,497 C 873.2771567258918,509.8809450530944 898.2231119259408,579.9213360160637 943,583 C 987.7768880740592,586.0786639839363 1052.384709022129,522.1956009888402 1097,520 C 1141.615290977871,517.8043990111598 1166.2380519855421,577.2962600285754 1215,571 C 1263.7619480144579,564.7037399714246 1336.6630830357021,492.61935889685844 1384,492 C 1431.3369169642979,491.38064110314156 1453.1096158716489,562.226304383991 1493,567 C 1532.8903841283511,571.773695616009 1590.8984534777023,510.47542356717776 1643,506 C 1695.1015465222977,501.52457643282224 1741.2965702175418,553.8720013472982 1787,569 C 1832.7034297824582,584.1279986527018 1877.9152656521308,562.036571043629 1900,551 C 1922.0847343478692,539.963428956371 1921.0423671739345,539.9817144781855 1920,540 C 1920,540 1920,1080 1920,1080 Z" fill="#004d65" opacity="0.3"/><path d="M 0,1080 C 0,1080 0,675 0,675 C 48.95308257245438,682.2564717534024 97.90616514490875,689.5129435068048 144,698 C 190.09383485509125,706.4870564931952 233.32842199281941,716.2046977261831 279,721 C 324.6715780071806,725.7953022738169 372.78014688381353,725.6682655884629 414,720 C 455.21985311618647,714.3317344115371 489.5509904719263,703.1222399199654 539,700 C 588.4490095280737,696.8777600800346 653.0158912284809,701.8427747316756 695,706 C 736.9841087715191,710.1572252683244 756.3854446141498,713.506661153332 802,709 C 847.6145553858502,704.493338846668 919.4423303149197,692.130580654996 980,673 C 1040.5576696850803,653.869419345004 1089.8452341261718,627.9710162266839 1122,637 C 1154.1547658738282,646.0289837733161 1169.1767331803933,689.9853544382686 1211,713 C 1252.8232668196067,736.0146455617314 1321.4478331522557,738.0875660202419 1372,724 C 1422.5521668477443,709.9124339797581 1455.0319342105834,679.664381480764 1502,671 C 1548.9680657894166,662.335618519236 1610.4244300054108,675.2549080567026 1660,679 C 1709.5755699945892,682.7450919432974 1747.2703457677737,677.3159862924263 1791,669 C 1834.7296542322263,660.6840137075737 1884.494186923493,649.4811467735924 1907,650 C 1929.505813076507,650.5188532264076 1924.7529065382535,662.7594266132038 1920,675 C 1920,675 1920,1080 1920,1080 Z" fill="#004d65" opacity="0.375"/><path d="M 0,1080 C 0,1080 0,810 0,810 C 44.02663946511527,803.4917699743708 88.05327893023053,796.9835399487414 132,801 C 175.94672106976947,805.0164600512586 219.8135237441931,819.5576101794048 270,813 C 320.1864762558069,806.4423898205952 376.692626092997,778.7860193336395 429,784 C 481.307373907003,789.2139806663605 529.4159718838192,827.2983124860369 572,826 C 614.5840281161808,824.7016875139631 651.6434863717261,784.0207307222125 695,774 C 738.3565136282739,763.9792692777875 788.0100826292764,784.6187646251126 829,795 C 869.9899173707236,805.3812353748874 902.3161831111684,805.5042107773368 953,806 C 1003.6838168888316,806.4957892226632 1072.7251849260504,807.3643922655401 1119,802 C 1165.2748150739496,796.6356077344599 1188.7830771846302,785.0382201605029 1234,778 C 1279.2169228153698,770.9617798394971 1346.1425063354284,768.4827270924485 1396,775 C 1445.8574936645716,781.5172729075515 1478.6468974736558,797.030871469703 1524,811 C 1569.3531025263442,824.969128530297 1627.2699037699476,837.3937870287394 1667,831 C 1706.7300962300524,824.6062129712606 1728.2734874465527,799.3939804153393 1774,784 C 1819.7265125534473,768.6060195846607 1889.6361464438419,763.030291309903 1918,769 C 1946.3638535561581,774.969708690097 1933.181926778079,792.4848543450485 1920,810 C 1920,810 1920,1080 1920,1080 Z" fill="#004d65" opacity="0.44999999999999996"/><path d="M 0,1080 C 0,1080 0,945 0,945 C 50.75193498646652,921.8908828295455 101.50386997293305,898.7817656590911 152,903 C 202.49613002706695,907.2182343409089 252.73645509473425,938.7638201931813 297,936 C 341.26354490526575,933.2361798068187 379.55030964813005,896.162953568184 428,897 C 476.44969035186995,897.837046431816 535.0623063127454,936.5843655340827 571,954 C 606.9376936872546,971.4156344659173 620.2004651008887,967.4995842954854 665,962 C 709.7995348991113,956.5004157045146 786.1358332836996,949.4172972839755 838,951 C 889.8641667163004,952.5827027160245 917.2562017643128,962.8312265686133 961,968 C 1004.7437982356872,973.1687734313867 1064.8393596590495,973.2577964415716 1104,975 C 1143.1606403409505,976.7422035584284 1161.3863595994892,980.1375876651005 1210,979 C 1258.6136404005108,977.8624123348995 1337.6152019429942,972.1918528980265 1389,950 C 1440.3847980570058,927.8081471019735 1464.1528326285347,889.0950007427939 1509,895 C 1553.8471673714653,900.9049992572061 1619.773467542867,951.4281441307976 1666,960 C 1712.226532457133,968.5718558692024 1738.7532971999976,935.1924227340162 1789,940 C 1839.2467028000024,944.8075772659838 1913.2133436571435,987.8021649331382 1939,995 C 1964.7866563428565,1002.1978350668618 1942.3933281714283,973.598917533431 1920,945 C 1920,945 1920,1080 1920,1080 Z" fill="#004d65" opacity="0.525"/></svg>